<svg xmlns="http://www.w3.org/2000/svg" width="1200" height="630" viewBox="0 0 1200 630">
  <defs>
    <linearGradient id="bg" x1="0" y1="0" x2="0" y2="630" gradientUnits="userSpaceOnUse">
      <stop offset="0%" stop-color="#0b0e13"/>
      <stop offset="100%" stop-color="#07080b"/>
    </linearGradient>
    <linearGradient id="accent" x1="0" y1="0" x2="1" y2="1">
      <stop offset="0%" stop-color="#5eead4"/>
      <stop offset="100%" stop-color="#38bdf8"/>
    </linearGradient>
    <radialGradient id="glowTeal" cx="50%" cy="50%" r="50%">
      <stop offset="0%" stop-color="#2dd4bf" stop-opacity="0.30"/>
      <stop offset="100%" stop-color="#2dd4bf" stop-opacity="0"/>
    </radialGradient>
    <radialGradient id="glowSky" cx="50%" cy="50%" r="50%">
      <stop offset="0%" stop-color="#38bdf8" stop-opacity="0.26"/>
      <stop offset="100%" stop-color="#38bdf8" stop-opacity="0"/>
    </radialGradient>
  </defs>

  <!-- Background -->
  <rect width="1200" height="630" fill="url(#bg)"/>
  <ellipse cx="170" cy="120" rx="420" ry="360" fill="url(#glowTeal)"/>
  <ellipse cx="1040" cy="560" rx="460" ry="380" fill="url(#glowSky)"/>

  <!-- Logo mark (scaled from logo.svg, 220x220 at x=84,y=205) -->
  <g transform="translate(84,205) scale(0.43)">
    <rect width="512" height="512" rx="108" fill="rgba(255,255,255,0.03)" stroke="rgba(255,255,255,0.10)" stroke-width="2"/>
    <rect x="48" y="56" width="416" height="162" rx="14" fill="rgba(255,255,255,0.04)" stroke="rgba(255,255,255,0.10)" stroke-width="1.5"/>
    <polyline points="70,138 92,120 70,102" fill="none" stroke="url(#accent)" stroke-width="9" stroke-linecap="round" stroke-linejoin="round"/>
    <rect x="108" y="113" width="130" height="8" rx="4" fill="rgba(255,255,255,0.55)"/>
    <rect x="108" y="131" width="90" height="7" rx="3.5" fill="rgba(255,255,255,0.18)"/>
    <rect x="108" y="148" width="150" height="7" rx="3.5" fill="rgba(255,255,255,0.13)"/>
    <rect x="108" y="168" width="9" height="15" rx="2" fill="url(#accent)"/>
    <rect x="48" y="238" width="196" height="218" rx="14" fill="rgba(255,255,255,0.04)" stroke="rgba(255,255,255,0.10)" stroke-width="1.5"/>
    <polyline points="70,318 92,300 70,282" fill="none" stroke="rgba(255,255,255,0.85)" stroke-width="9" stroke-linecap="round" stroke-linejoin="round"/>
    <rect x="108" y="293" width="90" height="7" rx="3.5" fill="rgba(255,255,255,0.35)"/>
    <rect x="108" y="311" width="110" height="7" rx="3.5" fill="rgba(255,255,255,0.15)"/>
    <rect x="108" y="329" width="70" height="7" rx="3.5" fill="rgba(255,255,255,0.12)"/>
    <circle cx="108" cy="374" r="5" fill="#2dd4bf"/>
    <rect x="120" y="370" width="60" height="7" rx="3.5" fill="rgba(255,255,255,0.25)"/>
    <rect x="268" y="238" width="196" height="218" rx="14" fill="rgba(255,255,255,0.04)" stroke="rgba(255,255,255,0.10)" stroke-width="1.5"/>
    <rect x="288" y="268" width="38" height="7" rx="3.5" fill="#38bdf8" opacity="0.9"/>
    <rect x="334" y="268" width="90" height="7" rx="3.5" fill="rgba(255,255,255,0.4)"/>
    <rect x="288" y="288" width="26" height="7" rx="3.5" fill="rgba(255,255,255,0.5)"/>
    <rect x="322" y="288" width="110" height="7" rx="3.5" fill="rgba(255,255,255,0.28)"/>
    <rect x="288" y="308" width="32" height="7" rx="3.5" fill="rgba(255,255,255,0.5)"/>
    <rect x="328" y="308" width="70" height="7" rx="3.5" fill="rgba(255,255,255,0.28)"/>
    <rect x="288" y="328" width="130" height="7" rx="3.5" fill="rgba(255,255,255,0.14)"/>
    <rect x="288" y="348" width="100" height="7" rx="3.5" fill="rgba(255,255,255,0.14)"/>
    <rect x="288" y="368" width="115" height="7" rx="3.5" fill="rgba(255,255,255,0.14)"/>
    <rect x="288" y="388" width="80" height="7" rx="3.5" fill="rgba(255,255,255,0.10)"/>
  </g>

  <!-- Wordmark + tagline -->
  <text x="372" y="290" font-family="'Segoe UI', 'Helvetica Neue', Arial, sans-serif" font-size="104" font-weight="800" letter-spacing="-3" fill="#eef2f6">Soryq</text>
  <text x="376" y="356" font-family="'Segoe UI', 'Helvetica Neue', Arial, sans-serif" font-size="33" font-weight="600" fill="#b6bfc9">The terminal-first developer workspace.</text>
  <text x="376" y="404" font-family="'Segoe UI', 'Helvetica Neue', Arial, sans-serif" font-size="25" font-weight="400" fill="#7c8794">Terminal grid · editor · live preview · git — one fast native window.</text>

  <!-- Accent underline -->
  <rect x="376" y="430" width="150" height="5" rx="2.5" fill="url(#accent)"/>
</svg>
